<svg width="24" height="25" viewBox="0 0 24 25" fill="none" xmlns="http://www.w3.org/2000/svg">
<path fill-rule="evenodd" clip-rule="evenodd" d="M15 2.4C15 1.07452 13.9255 0 12.6 0H11.4C10.0745 0 9 1.07452 9 2.4V3L15 3V2.4ZM18.9836 24.0247C18.1572 23.9669 17.5341 23.2501 17.5919 22.4237L18.4987 9.4554C18.5565 8.62899 19.2733 8.0059 20.0997 8.06368C20.9261 8.12147 21.5492 8.83826 21.4914 9.66467L20.5846 22.633C20.5268 23.4594 19.81 24.0825 18.9836 24.0247Z" fill="#485BFF"/>
<rect x="7.14368" y="23.9201" width="3" height="16" rx="1.5" transform="rotate(176 7.14368 23.9201)" fill="#485BFF"/>
<path d="M22.5 3C23.3284 3 24 3.67157 24 4.5V4.5C24 5.32843 23.3284 6 22.5 6L1.5 6C0.671573 6 2.93554e-08 5.32843 6.55671e-08 4.5V4.5C1.01779e-07 3.67157 0.671573 3 1.5 3L22.5 3Z" fill="#485BFF"/>
<path d="M18.5 21C19.3284 21 20 21.6716 20 22.5V22.5C20 23.3284 19.3284 24 18.5 24L5.5 24C4.67157 24 4 23.3284 4 22.5V22.5C4 21.6716 4.67157 21 5.5 21L18.5 21Z" fill="#485BFF"/>
</svg>
